<svg width="800" height="520" viewBox="0 0 800 520" fill="none" xmlns="http://www.w3.org/2000/svg">
  <rect width="800" height="520" rx="36" fill="url(#bg)"/>
  <rect x="34" y="34" width="732" height="452" rx="30" fill="rgba(7,18,14,0.28)" stroke="rgba(183,255,133,0.22)"/>
  <g opacity="0.22" stroke="#CFFF86" stroke-width="1">
    <path d="M80 100H720"/>
    <path d="M80 160H720"/>
    <path d="M80 220H720"/>
    <path d="M80 280H720"/>
    <path d="M80 340H720"/>
    <path d="M80 400H720"/>
    <path d="M120 80V440"/>
    <path d="M220 80V440"/>
    <path d="M320 80V440"/>
    <path d="M420 80V440"/>
    <path d="M520 80V440"/>
    <path d="M620 80V440"/>
  </g>
  <circle cx="228" cy="276" r="92" fill="#D8FF7A"/>
  <rect x="178" y="232" width="108" height="78" rx="24" fill="#F3FFD0"/>
  <rect x="238" y="250" width="58" height="24" rx="10" fill="#223228"/>
  <circle cx="214" cy="270" r="16" fill="#F8B84C"/>
  <path d="M292 266L384 222" stroke="#FFE88C" stroke-width="16" stroke-linecap="round"/>
  <circle cx="498" cy="174" r="30" fill="#8DDF64"/>
  <circle cx="574" cy="278" r="38" fill="#8DDF64"/>
  <circle cx="470" cy="344" r="28" fill="#F9B24B"/>
  <circle cx="624" cy="184" r="12" fill="#17331B"/>
  <circle cx="562" cy="262" r="12" fill="#17331B"/>
  <circle cx="458" cy="332" r="10" fill="#17331B"/>
  <text x="78" y="92" fill="#D8FF7A" font-family="Trebuchet MS, sans-serif" font-size="20" letter-spacing="5">WEB ARCADE PROTOTYPE</text>
  <text x="76" y="430" fill="#F4FFE9" font-family="Trebuchet MS, sans-serif" font-size="74" font-weight="700">Zombie Mower</text>
  <text x="80" y="468" fill="#A5B8A7" font-family="Trebuchet MS, sans-serif" font-size="24">俯视角割草打僵尸 · 自动攻击 · 升级生存</text>
  <defs>
    <linearGradient id="bg" x1="56" y1="42" x2="734" y2="470" gradientUnits="userSpaceOnUse">
      <stop stop-color="#10241D"/>
      <stop offset="1" stop-color="#173229"/>
    </linearGradient>
  </defs>
</svg>
